HIERARCHY
ROOT newVegas:Hips
{
	OFFSET 0.000000 96.479958 0.000000
	CHANNELS 6 Xposition Yposition Zposition Xrotation Yrotation Zrotation
	JOINT newVegas:Pelvis
	{
		OFFSET 0.000000 0.000000 0.000000
		CHANNELS 3 Xrotation Yrotation Zrotation
		JOINT newVegas:LeftUpLeg
		{
			OFFSET 18.735201 -5.666702 -4.541200
			CHANNELS 3 Xrotation Yrotation Zrotation
			JOINT newVegas:LeftLeg
			{
				OFFSET -0.021200 -31.938179 0.493100
				CHANNELS 3 Xrotation Yrotation Zrotation
				JOINT newVegas:LeftFoot
				{
					OFFSET 0.021200 -31.938179 -4.336299
					CHANNELS 3 Xrotation Yrotation Zrotation
					JOINT newVegas:LeftToeBase
					{
						OFFSET 0.943001 -26.722000 15.023500
						CHANNELS 3 Xrotation Yrotation Zrotation
						End Site
						{
							OFFSET 0.000000 30.670183 0.000000
						}
					}
				}
				JOINT newVegas:Left_PantLeg
				{
					OFFSET 0.663870 -9.044666 -1.108900
					CHANNELS 3 Xrotation Yrotation Zrotation
					End Site
					{
						OFFSET 1.415995 20.635357 0.000000
					}
				}
			}
		}
		JOINT newVegas:RightUpLeg
		{
			OFFSET -18.735201 -5.666702 -4.541200
			CHANNELS 3 Xrotation Yrotation Zrotation
			JOINT newVegas:RightLeg
			{
				OFFSET 0.018946 -31.938133 0.493100
				CHANNELS 3 Xrotation Yrotation Zrotation
				JOINT newVegas:RightFoot
				{
					OFFSET -0.018946 -31.938126 -4.336299
					CHANNELS 3 Xrotation Yrotation Zrotation
					JOINT newVegas:RightToeBase
					{
						OFFSET -0.943001 -26.722004 15.023500
						CHANNELS 3 Xrotation Yrotation Zrotation
						End Site
						{
							OFFSET 0.000000 30.670187 0.000000
						}
					}
				}
				JOINT newVegas:Right_PantLeg
				{
					OFFSET -0.661674 -9.044716 -1.108900
					CHANNELS 3 Xrotation Yrotation Zrotation
					End Site
					{
						OFFSET -1.415958 20.635269 0.000000
					}
				}
			}
		}
	}
	JOINT newVegas:Spine
	{
		OFFSET 0.000000 10.199997 -0.299500
		CHANNELS 3 Xrotation Yrotation Zrotation
		JOINT newVegas:Spine1
		{
			OFFSET 0.000000 11.900002 -1.516600
			CHANNELS 3 Xrotation Yrotation Zrotation
			JOINT newVegas:Spine2
			{
				OFFSET 0.000000 13.600006 -2.842500
				CHANNELS 3 Xrotation Yrotation Zrotation
				JOINT newVegas:Neck
				{
					OFFSET 0.000000 9.624100 -2.890100
					CHANNELS 3 Xrotation Yrotation Zrotation
					JOINT newVegas:Head
					{
						OFFSET 0.000000 14.068802 -1.351900
						CHANNELS 3 Xrotation Yrotation Zrotation
						JOINT newVegas:Hair_Back
						{
							OFFSET 0.000000 3.231903 -17.524799
							CHANNELS 3 Xrotation Yrotation Zrotation
							End Site
							{
								OFFSET 0.000000 19.849884 0.000000
							}
						}
						JOINT newVegas:Hair_Front
						{
							OFFSET 0.000000 31.260406 4.573800
							CHANNELS 3 Xrotation Yrotation Zrotation
							JOINT newVegas:Hair_Front1
							{
								OFFSET 0.000000 2.284103 11.993300
								CHANNELS 3 Xrotation Yrotation Zrotation
								JOINT newVegas:Hair_Front2
								{
									OFFSET 0.000000 2.284103 11.993300
									CHANNELS 3 Xrotation Yrotation Zrotation
									End Site
									{
										OFFSET 0.000000 12.208862 0.000000
									}
								}
							}
						}
						JOINT newVegas:Jowel
						{
							OFFSET 0.000000 -7.458206 6.864100
							CHANNELS 3 Xrotation Yrotation Zrotation
							End Site
							{
								OFFSET 0.000000 19.849884 0.000000
							}
						}
					}
				}
				JOINT newVegas:LeftShoulder
				{
					OFFSET 15.263000 10.923401 -0.547700
					CHANNELS 3 Xrotation Yrotation Zrotation
					JOINT newVegas:LeftArm
					{
						OFFSET 25.438599 -2.830597 -13.032500
						CHANNELS 3 Xrotation Yrotation Zrotation
						JOINT newVegas:LeftForeArm
						{
							OFFSET 29.960503 0.000000 0.000000
							CHANNELS 3 Xrotation Yrotation Zrotation
							JOINT newVegas:LeftHand
							{
								OFFSET 27.849251 0.000000 0.000000
								CHANNELS 3 Xrotation Yrotation Zrotation
								JOINT newVegas:LeftHandThumb1
								{
									OFFSET 4.487587 -3.305161 6.305391
									CHANNELS 3 Xrotation Yrotation Zrotation
									JOINT newVegas:LeftHandThumb2
									{
										OFFSET 5.480453 -3.164139 3.164143
										CHANNELS 3 Xrotation Yrotation Zrotation
										JOINT newVegas:LeftHandThumb3
										{
											OFFSET 5.159721 -2.978973 2.978967
											CHANNELS 3 Xrotation Yrotation Zrotation
											End Site
											{
												OFFSET 2.494507 5.926697 1.738678
											}
										}
									}
								}
								JOINT newVegas:LeftHandIndex1
								{
									OFFSET 18.578728 -0.527832 5.208049
									CHANNELS 3 Xrotation Yrotation Zrotation
									JOINT newVegas:LeftHandIndex2
									{
										OFFSET 3.192009 0.000000 0.000000
										CHANNELS 3 Xrotation Yrotation Zrotation
										JOINT newVegas:LeftHandIndex3
										{
											OFFSET 3.835129 0.000000 0.000000
											CHANNELS 3 Xrotation Yrotation Zrotation
											End Site
											{
												OFFSET -0.034599 3.816971 0.371180
											}
										}
									}
								}
								JOINT newVegas:LeftHandMiddle1
								{
									OFFSET 18.476105 0.000000 0.000000
									CHANNELS 3 Xrotation Yrotation Zrotation
									JOINT newVegas:LeftHandMiddle2
									{
										OFFSET 3.324875 0.000000 0.000000
										CHANNELS 3 Xrotation Yrotation Zrotation
										JOINT newVegas:LeftHandMiddle3
										{
											OFFSET 4.596550 0.000000 0.000000
											CHANNELS 3 Xrotation Yrotation Zrotation
											End Site
											{
												OFFSET 0.057701 4.578827 0.399218
											}
										}
									}
								}
								JOINT newVegas:LeftHandRing1
								{
									OFFSET 17.732719 0.121887 -4.201567
									CHANNELS 3 Xrotation Yrotation Zrotation
									JOINT newVegas:LeftHandRing2
									{
										OFFSET 2.733170 0.000000 0.000000
										CHANNELS 3 Xrotation Yrotation Zrotation
										JOINT newVegas:LeftHandRing3
										{
											OFFSET 3.178268 0.000000 0.000000
											CHANNELS 3 Xrotation Yrotation Zrotation
											End Site
											{
												OFFSET 0.119102 3.170624 0.185394
											}
										}
									}
								}
								JOINT newVegas:LeftHandPinky1
								{
									OFFSET 15.989624 -0.606689 -7.535461
									CHANNELS 3 Xrotation Yrotation Zrotation
									JOINT newVegas:LeftHandPinky2
									{
										OFFSET 2.538986 0.000000 0.000000
										CHANNELS 3 Xrotation Yrotation Zrotation
										JOINT newVegas:LeftHandPinky3
										{
											OFFSET 2.593102 0.000000 0.000000
											CHANNELS 3 Xrotation Yrotation Zrotation
											End Site
											{
												OFFSET -0.150902 2.584198 0.152708
											}
										}
									}
								}
							}
							JOINT newVegas:Left_Sleeve
							{
								OFFSET 0.267448 -0.649796 0.577675
								CHANNELS 3 Xrotation Yrotation Zrotation
								End Site
								{
									OFFSET 0.000000 15.991241 0.000000
								}
							}
							JOINT newVegas:Left_CapeC
							{
								OFFSET 15.715958 -8.608795 -6.935905
								CHANNELS 3 Xrotation Yrotation Zrotation
								JOINT newVegas:Left_CapeC1
								{
									OFFSET 0.000000 -8.688499 0.000000
									CHANNELS 3 Xrotation Yrotation Zrotation
									End Site
									{
										OFFSET 0.000000 8.688499 0.000000
									}
								}
							}
						}
						JOINT newVegas:Left_CapeB
						{
							OFFSET 26.118385 -8.608795 -7.079235
							CHANNELS 3 Xrotation Yrotation Zrotation
							JOINT newVegas:Left_CapeB1
							{
								OFFSET 0.000000 -8.688499 0.000000
								CHANNELS 3 Xrotation Yrotation Zrotation
								End Site
								{
									OFFSET 0.000000 8.688499 0.000000
								}
							}
						}
						JOINT newVegas:Left_CapeA
						{
							OFFSET 5.115639 -8.608795 -10.395809
							CHANNELS 3 Xrotation Yrotation Zrotation
							JOINT newVegas:Left_CapeA1
							{
								OFFSET 0.000000 -8.688499 0.000000
								CHANNELS 3 Xrotation Yrotation Zrotation
								End Site
								{
									OFFSET 0.000000 8.688499 0.000000
								}
							}
						}
					}
				}
				JOINT newVegas:RightShoulder
				{
					OFFSET -15.263000 10.923401 -0.547700
					CHANNELS 3 Xrotation Yrotation Zrotation
					JOINT newVegas:RightArm
					{
						OFFSET -25.438599 -2.830597 -13.032500
						CHANNELS 3 Xrotation Yrotation Zrotation
						JOINT newVegas:RightForeArm
						{
							OFFSET -29.960503 0.000000 0.000000
							CHANNELS 3 Xrotation Yrotation Zrotation
							JOINT newVegas:RightHand
							{
								OFFSET -27.849251 0.000000 0.000000
								CHANNELS 3 Xrotation Yrotation Zrotation
								JOINT newVegas:RightHandThumb1
								{
									OFFSET -4.487587 -3.305161 6.305391
									CHANNELS 3 Xrotation Yrotation Zrotation
									JOINT newVegas:RightHandThumb2
									{
										OFFSET -5.480453 -3.164139 3.164143
										CHANNELS 3 Xrotation Yrotation Zrotation
										JOINT newVegas:RightHandThumb3
										{
											OFFSET -5.159721 -2.978973 2.978967
											CHANNELS 3 Xrotation Yrotation Zrotation
											End Site
											{
												OFFSET -2.494507 5.926697 1.738678
											}
										}
									}
								}
								JOINT newVegas:RightHandIndex1
								{
									OFFSET -18.578728 -0.527832 5.208049
									CHANNELS 3 Xrotation Yrotation Zrotation
									JOINT newVegas:RightHandIndex2
									{
										OFFSET -3.192009 0.000000 0.000000
										CHANNELS 3 Xrotation Yrotation Zrotation
										JOINT newVegas:RightHandIndex3
										{
											OFFSET -3.835129 0.000000 0.000000
											CHANNELS 3 Xrotation Yrotation Zrotation
											End Site
											{
												OFFSET 0.034599 3.816971 0.371180
											}
										}
									}
								}
								JOINT newVegas:RightHandMiddle1
								{
									OFFSET -18.476105 0.000000 0.000000
									CHANNELS 3 Xrotation Yrotation Zrotation
									JOINT newVegas:RightHandMiddle2
									{
										OFFSET -3.324875 0.000000 0.000000
										CHANNELS 3 Xrotation Yrotation Zrotation
										JOINT newVegas:RightHandMiddle3
										{
											OFFSET -4.596550 0.000000 0.000000
											CHANNELS 3 Xrotation Yrotation Zrotation
											End Site
											{
												OFFSET -0.057701 4.578827 0.399218
											}
										}
									}
								}
								JOINT newVegas:RightHandRing1
								{
									OFFSET -17.732719 0.121887 -4.201567
									CHANNELS 3 Xrotation Yrotation Zrotation
									JOINT newVegas:RightHandRing2
									{
										OFFSET -2.733170 0.000000 0.000000
										CHANNELS 3 Xrotation Yrotation Zrotation
										JOINT newVegas:RightHandRing3
										{
											OFFSET -3.178268 0.000000 0.000000
											CHANNELS 3 Xrotation Yrotation Zrotation
											End Site
											{
												OFFSET -0.119102 3.170624 0.185394
											}
										}
									}
								}
								JOINT newVegas:RightHandPinky1
								{
									OFFSET -15.989624 -0.606689 -7.535461
									CHANNELS 3 Xrotation Yrotation Zrotation
									JOINT newVegas:RightHandPinky2
									{
										OFFSET -2.538986 0.000000 0.000000
										CHANNELS 3 Xrotation Yrotation Zrotation
										JOINT newVegas:RightHandPinky3
										{
											OFFSET -2.593102 0.000000 0.000000
											CHANNELS 3 Xrotation Yrotation Zrotation
											End Site
											{
												OFFSET 0.150902 2.584198 0.152708
											}
										}
									}
								}
							}
							JOINT newVegas:Right_CapeC
							{
								OFFSET -15.715958 -8.608795 -6.935905
								CHANNELS 3 Xrotation Yrotation Zrotation
								JOINT newVegas:Right_CapeC1
								{
									OFFSET 0.000000 -8.688499 0.000000
									CHANNELS 3 Xrotation Yrotation Zrotation
									End Site
									{
										OFFSET 0.000000 8.688499 0.000000
									}
								}
							}
							JOINT newVegas:Right_Sleeve
							{
								OFFSET -0.267448 -0.649994 0.577675
								CHANNELS 3 Xrotation Yrotation Zrotation
								End Site
								{
									OFFSET 0.000000 15.991302 0.000000
								}
							}
						}
						JOINT newVegas:Right_CapeA
						{
							OFFSET -5.115540 -8.608795 -10.395824
							CHANNELS 3 Xrotation Yrotation Zrotation
							JOINT newVegas:Right_CapeA1
							{
								OFFSET 0.000000 -8.688499 0.000000
								CHANNELS 3 Xrotation Yrotation Zrotation
								End Site
								{
									OFFSET 0.000000 8.688499 0.000000
								}
							}
						}
						JOINT newVegas:Right_CapeB
						{
							OFFSET -26.118187 -8.608795 -7.079266
							CHANNELS 3 Xrotation Yrotation Zrotation
							JOINT newVegas:Right_CapeB1
							{
								OFFSET 0.000000 -8.688499 0.000000
								CHANNELS 3 Xrotation Yrotation Zrotation
								End Site
								{
									OFFSET 0.000000 8.688499 0.000000
								}
							}
						}
					}
				}
				JOINT newVegas:Left_Collar
				{
					OFFSET 18.625099 8.655502 8.828100
					CHANNELS 3 Xrotation Yrotation Zrotation
					JOINT newVegas:Left_Collar1
					{
						OFFSET 14.783401 10.540405 -1.259500
						CHANNELS 3 Xrotation Yrotation Zrotation
						End Site
						{
							OFFSET 0.000000 18.199875 0.000000
						}
					}
				}
				JOINT newVegas:Collar_Back
				{
					OFFSET 0.000000 15.630707 -20.132601
					CHANNELS 3 Xrotation Yrotation Zrotation
					End Site
					{
						OFFSET 0.000000 22.523010 0.000000
					}
				}
				JOINT newVegas:Left_Peck
				{
					OFFSET 17.239599 -5.132599 25.482599
					CHANNELS 3 Xrotation Yrotation Zrotation
					End Site
					{
						OFFSET 0.000000 22.523010 0.000000
					}
				}
				JOINT newVegas:Right_Peck
				{
					OFFSET -17.239599 -5.132202 25.482599
					CHANNELS 3 Xrotation Yrotation Zrotation
					End Site
					{
						OFFSET 0.000000 22.523010 0.000000
					}
				}
				JOINT newVegas:Right_Collar
				{
					OFFSET -18.625099 8.655792 8.828100
					CHANNELS 3 Xrotation Yrotation Zrotation
					JOINT newVegas:Right_Collar1
					{
						OFFSET -14.783401 10.539993 -1.259500
						CHANNELS 3 Xrotation Yrotation Zrotation
						End Site
						{
							OFFSET 0.000000 18.199631 0.000000
						}
					}
				}
			}
		}
		JOINT newVegas:Belly
		{
			OFFSET 0.000000 -6.540398 9.014299
			CHANNELS 3 Xrotation Yrotation Zrotation
			End Site
			{
				OFFSET 0.000000 11.566666 0.000000
			}
		}
	}
	JOINT newVegas:ElvisFacialAnim_Joint
	{
		OFFSET 1.000000 -95.330101 -8.825800
		CHANNELS 3 Xrotation Yrotation Zrotation
		End Site
		{
			OFFSET 0.000000 35.315800 0.000000
		}
	}
}
MOTION
Frames: 4
Frame Time: 0.033333
-0.628736 87.935249 23.982201 7.688691 -24.812337 -1.307134 0.000000 -0.000001 0.000001 -30.485204 11.062006 1.892897 62.380930 4.600340 -0.585811 -7.965532 2.749737 2.847757 0.000004 0.000001 0.000000 -0.000000 -0.000000 0.000000 -13.801160 -20.285923 1.444853 36.536594 -8.315982 -11.545450 -19.970954 -28.021379 -7.939091 -0.000000 0.000001 -0.000001 0.000001 0.000003 -0.000003 8.116855 5.338626 -1.232473 0.797054 0.741960 -0.903514 0.931339 0.732652 -0.897988 1.921924 1.148125 -2.604567 1.921935 1.148126 -2.604562 -0.000002 0.000001 0.000000 1.922006 1.148139 -2.604571 1.921784 1.148120 -2.604561 0.000001 0.000000 0.000000 -0.000002 0.000001 0.000000 0.582379 -1.082805 -1.398656 8.289689 8.179939 -66.905357 0.000028 -64.109344 0.000029 10.664103 -2.538553 -6.742573 -1.187921 17.245094 9.032177 1.544656 2.723079 -0.789285 0.000003 -0.000001 -0.000006 -0.093238 -9.033040 -1.729844 0.185247 1.589510 -13.293610 -0.000000 -0.000000 0.000000 -0.467936 -7.901048 -4.280801 0.287966 1.974166 -16.596342 -0.000001 -0.000002 0.000003 -0.817618 -6.899551 -7.256413 0.472791 2.511870 -21.315883 0.000000 -0.000000 -0.000003 -0.408066 -2.360516 -9.012435 0.689880 -1.067315 -26.134491 0.000000 -0.000002 0.000001 0.000001 0.000003 -0.000000 0.000001 0.000003 -0.000000 0.000000 0.000003 -0.000000 -0.000000 -0.000001 -0.000000 -0.000000 -0.000002 -0.000001 -0.000000 -0.000001 -0.000000 -0.000000 -0.000001 0.000000 -3.891749 9.328490 -6.900181 24.947268 30.323270 57.260280 -0.000175 83.189771 0.000194 7.931728 5.136536 12.982842 6.266794 -16.436669 -5.690879 20.728514 -3.312263 12.965535 0.000002 -0.000002 -0.000001 3.798572 -6.196766 56.387009 6.398020 -6.926514 85.447087 0.000003 -0.000001 -0.000002 4.252619 -6.463362 58.479096 6.049109 -6.890072 82.547023 0.000003 0.000002 0.000002 4.914407 -6.825271 61.504679 5.504631 -6.797299 77.979894 -0.000001 -0.000001 0.000001 5.538679 -7.130199 64.281458 5.044539 -6.683568 74.061585 -0.000002 -0.000000 -0.000001 -0.000007 -0.000001 0.000003 -0.000003 -0.000004 0.000005 -0.000007 -0.000001 0.000002 0.000001 -0.000002 -0.000001 0.000001 -0.000001 -0.000000 0.000001 -0.000002 -0.000001 0.000001 -0.000001 0.000001 0.000001 0.000001 0.000000 0.000001 0.000001 0.000000 0.000001 0.000001 0.000000 0.000001 0.000001 0.000000 0.000001 0.000001 0.000000 0.000001 0.000001 0.000000 0.000001 0.000001 0.000000 0.000002 0.000001 -0.000000 0.000000 -0.000001 0.000001 
-0.616961 87.349754 26.213531 8.122234 -25.307608 -0.685296 -0.000001 -0.000001 0.000000 -37.532060 9.773914 7.104551 66.220986 2.880526 -2.494096 2.489606 3.415952 -2.566237 -0.000003 0.000000 0.000000 0.000002 0.000000 0.000001 -13.938843 -19.587062 0.539571 37.403502 -8.807579 -12.542930 -20.075125 -28.737884 -5.768860 0.000000 -0.000000 -0.000002 -0.000002 -0.000001 0.000000 9.118238 4.523411 -1.844082 0.148522 0.643396 -0.763751 0.282906 0.637328 -0.760546 1.562545 1.114227 -2.576339 1.562555 1.114230 -2.576341 -0.000000 0.000000 0.000000 1.562549 1.114221 -2.576337 1.562476 1.114236 -2.576332 -0.000000 0.000000 -0.000000 -0.000000 0.000000 0.000000 0.704996 -2.672465 -1.331269 9.452656 9.522463 -63.948322 0.000005 -66.098992 0.000013 9.830418 -2.957678 -6.915815 -1.172999 17.309265 9.047996 1.544658 2.723081 -0.789288 0.000003 -0.000003 -0.000006 -0.247240 -8.614960 -2.626327 0.160814 1.482280 -12.381588 -0.000003 0.000001 0.000000 -0.576481 -7.300894 -5.148400 0.246968 1.831111 -15.361737 -0.000004 0.000001 0.000001 -0.857488 -6.057875 -8.128831 0.399332 2.315003 -19.571870 -0.000002 0.000001 0.000003 -0.311891 -1.303478 -9.929195 0.573328 -1.317216 -23.851864 -0.000003 -0.000002 0.000002 0.000002 0.000001 -0.000002 0.000002 0.000001 -0.000002 0.000001 0.000001 -0.000002 0.000001 0.000001 -0.000001 0.000002 0.000000 -0.000002 0.000001 0.000001 -0.000001 0.000002 0.000001 -0.000001 -3.914914 9.285150 -6.588999 26.706352 30.049257 53.875296 0.000324 85.726606 -0.000390 6.669144 5.353574 13.374070 5.960701 -16.217138 -6.049128 20.728518 -3.312269 12.965528 0.000001 -0.000002 0.000003 3.523556 -5.985195 56.181438 6.398020 -6.926519 85.447087 -0.000003 0.000000 -0.000002 3.867329 -6.211427 57.808378 6.044136 -6.889429 82.505495 0.000001 0.000001 -0.000001 4.367504 -6.534413 60.240657 5.495571 -6.795386 77.903341 -0.000000 -0.000001 -0.000000 4.826770 -6.819170 62.476901 5.044540 -6.683571 74.061585 0.000001 0.000002 -0.000000 -0.000001 0.000001 -0.000001 -0.000001 0.000000 0.000000 -0.000001 0.000001 -0.000001 -0.000002 0.000001 0.000001 -0.000002 0.000002 0.000003 -0.000002 0.000001 0.000001 -0.000002 0.000003 0.000003 0.000000 -0.000001 -0.000000 0.000000 -0.000001 -0.000000 0.000000 -0.000001 -0.000000 0.000000 -0.000001 -0.000000 0.000000 -0.000001 -0.000000 0.000000 -0.000001 -0.000000 0.000000 -0.000001 -0.000000 -0.000001 -0.000000 -0.000000 -0.000001 -0.000001 0.000000 
-0.545034 86.541084 28.322765 8.902091 -25.683369 0.228284 -0.000000 0.000000 0.000000 -45.148705 7.008055 10.992549 71.936693 4.363028 -3.560189 5.255839 5.680900 -8.356350 -0.000003 0.000000 -0.000000 -0.000002 0.000000 -0.000000 -13.891917 -18.170801 -1.432260 38.915252 -8.550772 -11.960643 -21.264011 -29.933488 -3.372660 -0.000001 -0.000001 0.000001 0.000002 0.000000 0.000000 10.228023 3.896389 -2.315187 -0.202313 0.581079 -0.796965 -0.067751 0.573419 -0.796969 1.263407 1.028133 -2.511045 1.263421 1.028124 -2.511048 -0.000001 0.000003 0.000000 1.263483 1.028133 -2.511052 1.263417 1.028116 -2.511044 0.000000 0.000002 0.000000 -0.000001 0.000003 -0.000000 0.859220 -4.613435 -1.475801 10.371371 10.555685 -59.627347 -0.000026 -67.885414 -0.000039 8.973994 -3.728219 -7.107542 -1.177202 17.400551 9.101054 1.544653 2.723082 -0.789286 0.000000 -0.000002 -0.000005 -0.383258 -7.877503 -3.492300 0.114566 1.253368 -10.445150 -0.000002 -0.000002 0.000001 -0.644153 -6.627107 -5.797925 0.200665 1.653395 -13.838564 0.000001 0.000001 0.000001 -0.860388 -5.436289 -8.550331 0.354010 2.183382 -18.416557 0.000003 0.000001 0.000005 -0.249474 -0.709105 -10.186183 0.529730 -1.417952 -22.943543 0.000000 -0.000002 -0.000000 -0.000002 -0.000001 -0.000000 -0.000002 -0.000001 -0.000000 -0.000003 -0.000001 -0.000000 -0.000002 0.000002 0.000002 -0.000001 0.000001 0.000001 -0.000002 0.000002 0.000002 -0.000001 0.000002 0.000001 -3.929445 8.892018 -6.662339 28.344160 29.965826 49.594407 0.000201 88.385599 -0.000273 5.643142 5.440295 14.214658 5.846020 -16.056714 -6.141520 20.728513 -3.312261 12.965525 0.000002 -0.000003 -0.000001 3.489181 -5.924931 56.382607 6.398021 -6.926516 85.447087 0.000002 0.000001 -0.000003 3.713083 -6.074535 57.753143 6.043418 -6.889326 82.499423 -0.000000 -0.000000 -0.000002 4.054845 -6.309395 59.871580 5.492579 -6.794755 77.878029 -0.000000 0.000001 0.000003 4.363965 -6.523938 61.831893 5.044537 -6.683569 74.061578 -0.000002 -0.000000 0.000006 -0.000001 -0.000000 -0.000002 0.000001 0.000001 -0.000002 -0.000001 -0.000000 -0.000002 -0.000001 0.000001 0.000001 -0.000001 0.000002 0.000002 -0.000001 0.000001 0.000001 -0.000001 0.000002 0.000003 0.000000 0.000001 -0.000000 0.000000 0.000001 -0.000000 0.000000 0.000001 -0.000000 0.000000 0.000001 -0.000000 0.000000 0.000001 -0.000000 0.000000 0.000001 -0.000000 0.000000 0.000001 -0.000000 0.000000 0.000000 -0.000000 -0.000000 0.000000 0.000000 
-0.424792 85.403122 30.620684 9.903067 -25.732458 0.920480 -0.000000 0.000001 -0.000000 -55.835133 3.935610 13.251046 76.025934 5.673502 -4.263494 8.033225 8.312251 -7.084883 0.000003 -0.000000 0.000000 0.000003 -0.000000 0.000000 -11.879503 -17.214288 -4.412372 38.765360 -7.419117 -10.909740 -22.228555 -31.052711 2.642837 -0.000001 -0.000000 0.000001 -0.000002 0.000000 -0.000004 11.104598 3.676227 -1.918919 -0.225009 0.573548 -1.095621 -0.090318 0.556935 -1.098382 1.080494 0.885111 -2.332901 1.080511 0.885102 -2.332899 0.000002 -0.000000 0.000000 1.080565 0.885119 -2.332902 1.080423 0.885087 -2.332895 0.000000 0.000000 0.000000 0.000002 -0.000000 0.000001 0.998471 -6.557662 -1.559235 10.887774 10.769641 -54.528132 -0.000005 -68.508648 -0.000005 8.266898 -4.828830 -6.998968 -1.216579 17.500287 9.209325 1.544655 2.723081 -0.789286 -0.000000 -0.000003 -0.000003 -0.457842 -7.079166 -4.377899 0.070116 0.982073 -8.166297 -0.000000 -0.000004 -0.000000 -0.671687 -6.089159 -6.319814 0.163096 1.492698 -12.470026 -0.000002 0.000000 0.000002 -0.864271 -5.191080 -8.661295 0.339086 2.138122 -18.021265 -0.000002 -0.000001 0.000001 -0.269242 -0.695355 -9.964198 0.549209 -1.372434 -23.353206 0.000001 -0.000003 -0.000001 0.000001 -0.000004 0.000002 0.000001 -0.000004 0.000002 -0.000000 -0.000004 0.000002 0.000002 0.000000 0.000001 0.000003 -0.000001 0.000000 0.000002 0.000000 0.000001 0.000002 0.000001 0.000001 -3.916142 7.972438 -6.884074 29.741748 29.988048 44.430401 0.001688 90.702993 -0.001531 4.982761 5.586120 15.489161 5.936010 -15.986968 -5.968885 20.728516 -3.312267 12.965525 0.000000 -0.000002 -0.000001 3.772562 -6.092135 57.244054 6.398020 -6.926514 85.447087 -0.000001 0.000001 -0.000002 3.784805 -6.080687 58.694718 6.049352 -6.890116 82.548915 -0.000004 -0.000001 -0.000001 3.860512 -6.144084 60.948742 5.499157 -6.796162 77.933654 0.000001 0.000001 0.000000 3.929373 -6.232475 63.057802 5.044536 -6.683565 74.061585 -0.000004 -0.000000 -0.000001 -0.000001 0.000001 0.000003 0.000001 -0.000002 0.000001 -0.000001 0.000000 0.000003 0.000000 0.000000 0.000002 0.000000 0.000001 0.000003 0.000000 0.000000 0.000002 0.000001 0.000001 0.000003 -0.000000 -0.000000 -0.000000 -0.000000 -0.000000 -0.000000 -0.000000 -0.000000 -0.000000 -0.000000 -0.000000 -0.000000 -0.000000 -0.000000 -0.000000 -0.000000 -0.000000 -0.000000 -0.000000 -0.000000 -0.000000 -0.000000 -0.000000 0.000000 -0.000000 0.000001 -0.000000 
